<svg width="197" height="168" viewBox="0 0 197 168" fill="none" xmlns="http://www.w3.org/2000/svg">
<g filter="url(#filter0_d)">
<path d="M178.599 90.9128C178.627 110.318 171.877 129.114 159.532 144H33.2304C24.7758 133.769 18.8891 121.636 16.0684 108.625C13.2477 95.6149 13.5759 82.1106 17.0254 69.2552C20.4748 56.3998 26.9439 44.5715 35.8853 34.7712C44.8267 24.9709 55.9773 17.487 68.3936 12.9527C80.8098 8.41843 94.1264 6.96719 107.216 8.72181C120.307 10.4764 132.785 15.3853 143.596 23.033C154.407 30.6807 163.232 40.8422 169.325 52.6577C175.417 64.4732 178.598 77.595 178.599 90.9128Z" fill="#CEEDED"/>
</g>
<path d="M56.3379 69.417H31.2131C28.9017 69.417 27.0278 71.3066 27.0278 73.6375C27.0278 75.9684 28.9017 77.858 31.2131 77.858H56.3379C58.6494 77.858 60.5232 75.9684 60.5232 73.6375C60.5232 71.3066 58.6494 69.417 56.3379 69.417Z" fill="#D3EDE8"/>
<path d="M48.1808 63.4878H43.7913C41.4798 63.4878 39.606 65.3774 39.606 67.7083C39.606 70.0392 41.4798 71.9288 43.7913 71.9288H48.1808C50.4923 71.9288 52.3661 70.0392 52.3661 67.7083C52.3661 65.3774 50.4923 63.4878 48.1808 63.4878Z" fill="#D3EDE8"/>
<path d="M138.253 99.8608H163.378C165.689 99.8608 167.563 97.9713 167.563 95.6403C167.563 93.3094 165.689 91.4198 163.378 91.4198H138.253C135.941 91.4198 134.068 93.3094 134.068 95.6403C134.068 97.9713 135.941 99.8608 138.253 99.8608Z" fill="#D3EDE8"/>
<path d="M146.41 93.9321H150.799C153.111 93.9321 154.985 92.0425 154.985 89.7116C154.985 87.3807 153.111 85.4911 150.799 85.4911H146.41C144.098 85.4911 142.224 87.3807 142.224 89.7116C142.224 92.0425 144.098 93.9321 146.41 93.9321Z" fill="#D3EDE8"/>
<g style="mix-blend-mode:multiply">
<path d="M153.022 136.902H39.7284C37.8062 136.902 36.248 138.473 36.248 140.412C36.248 142.35 37.8062 143.922 39.7284 143.922H153.022C154.944 143.922 156.503 142.35 156.503 140.412C156.503 138.473 154.944 136.902 153.022 136.902Z" fill="#A4D8D6"/>
</g>
<path d="M51.1677 79.877H141.586V122.2C141.586 126.57 139.864 130.761 136.8 133.851C133.737 136.941 129.581 138.677 125.248 138.677H67.5054C63.1724 138.677 59.0168 136.941 55.9529 133.851C52.889 130.761 51.1677 126.57 51.1677 122.2V79.877Z" fill="#F49600"/>
<path d="M141.586 79.8056H51.1677L91.7011 36.6306C92.3028 35.9897 93.0277 35.4792 93.8316 35.1303C94.6355 34.7815 95.5015 34.6016 96.3767 34.6016C97.2519 34.6016 98.1178 34.7815 98.9217 35.1303C99.7256 35.4792 100.451 35.9897 101.052 36.6306L141.586 79.8056Z" fill="#F49600"/>
<path d="M124.253 45.0391H60.751C57.0103 45.0391 53.9778 48.0974 53.9778 51.8701V95.1571C53.9778 98.9297 57.0103 101.988 60.751 101.988H124.253C127.994 101.988 131.027 98.9297 131.027 95.1571V51.8701C131.027 48.0974 127.994 45.0391 124.253 45.0391Z" fill="#EDEDED"/>
<path d="M46.4825 51.209L70.2796 51.209C73.5001 51.209 76.1108 48.5762 76.1108 45.3285C76.1108 42.0808 73.5001 39.448 70.2796 39.448H46.4825C43.262 39.448 40.6512 42.0808 40.6512 45.3285C40.6512 48.5762 43.262 51.209 46.4825 51.209Z" fill="#13D2C2"/>
<path d="M57.8483 42.9478H63.9641C67.1847 42.9478 69.7954 40.315 69.7954 37.0673C69.7954 33.8195 67.1847 31.1868 63.9641 31.1868H57.8483C54.6278 31.1868 52.017 33.8195 52.017 37.0673C52.017 40.315 54.6278 42.9478 57.8483 42.9478Z" fill="#13D2C2"/>
<path opacity="0.095" d="M133.456 46.5708H69.9539C66.2131 46.5708 63.1807 49.6291 63.1807 53.4018V96.6888C63.1807 100.461 66.2131 103.52 69.9539 103.52H133.456C137.197 103.52 140.23 100.461 140.23 96.6888V53.4018C140.23 49.6291 137.197 46.5708 133.456 46.5708Z" fill="#020202"/>
<path d="M131.475 48.7686H67.9727C64.2319 48.7686 61.1995 51.8269 61.1995 55.5996V98.8866C61.1995 102.659 64.2319 105.718 67.9727 105.718H131.475C135.216 105.718 138.248 102.659 138.248 98.8866V55.5996C138.248 51.8269 135.216 48.7686 131.475 48.7686Z" fill="#F7F7F7"/>
<path opacity="0.095" d="M128.129 56.585H64.6263C60.8855 56.585 57.853 59.6433 57.853 63.416V106.703C57.853 110.476 60.8855 113.534 64.6263 113.534H128.129C131.869 113.534 134.902 110.476 134.902 106.703V63.416C134.902 59.6433 131.869 56.585 128.129 56.585Z" fill="#020202"/>
<path d="M126.277 58.9824H62.7747C59.0339 58.9824 56.0015 62.0408 56.0015 65.8134V109.1C56.0015 112.873 59.0339 115.931 62.7747 115.931H126.277C130.018 115.931 133.05 112.873 133.05 109.1V65.8134C133.05 62.0408 130.018 58.9824 126.277 58.9824Z" fill="white"/>
<path d="M122.014 83.291H67.0413C66.6043 83.291 66.25 83.6483 66.25 84.089V84.09C66.25 84.5307 66.6043 84.888 67.0413 84.888H122.014C122.451 84.888 122.806 84.5307 122.806 84.09V84.089C122.806 83.6483 122.451 83.291 122.014 83.291Z" fill="#B5BBC1"/>
<path d="M122.014 88.6128H67.0413C66.6043 88.6128 66.25 88.9701 66.25 89.4108V89.4118C66.25 89.8525 66.6043 90.2098 67.0413 90.2098H122.014C122.451 90.2098 122.806 89.8525 122.806 89.4118V89.4108C122.806 88.9701 122.451 88.6128 122.014 88.6128Z" fill="#B5BBC1"/>
<path d="M122.014 93.9355H67.0413C66.6043 93.9355 66.25 94.2928 66.25 94.7335V94.7345C66.25 95.1753 66.6043 95.5325 67.0413 95.5325H122.014C122.451 95.5325 122.806 95.1753 122.806 94.7345V94.7335C122.806 94.2928 122.451 93.9355 122.014 93.9355Z" fill="#B5BBC1"/>
<path d="M122.014 99.2578H67.0413C66.6043 99.2578 66.25 99.6151 66.25 100.056V100.057C66.25 100.498 66.6043 100.855 67.0413 100.855H122.014C122.451 100.855 122.806 100.498 122.806 100.057V100.056C122.806 99.6151 122.451 99.2578 122.014 99.2578Z" fill="#B5BBC1"/>
<path d="M122.014 104.58H67.0413C66.6043 104.58 66.25 104.937 66.25 105.378V105.379C66.25 105.82 66.6043 106.177 67.0413 106.177H122.014C122.451 106.177 122.806 105.82 122.806 105.379V105.378C122.806 104.937 122.451 104.58 122.014 104.58Z" fill="#B5BBC1"/>
<path d="M141.588 79.877V129.907C141.587 132.233 140.671 134.464 139.04 136.109C137.409 137.754 135.197 138.678 132.891 138.678H59.8626C57.5562 138.678 55.3442 137.754 53.7133 136.109C52.0824 134.464 51.166 132.233 51.1658 129.907V79.877L96.3802 109.377L141.588 79.877Z" fill="#FDAD13"/>
<g style="mix-blend-mode:multiply" opacity="0.332">
<path d="M129.27 87.914V117.49C129.27 118.641 129.045 119.781 128.609 120.845C128.172 121.909 127.532 122.875 126.725 123.689C125.918 124.503 124.959 125.149 123.904 125.589C122.85 126.03 121.719 126.256 120.578 126.256H51.1697V129.907C51.1699 132.233 52.0863 134.464 53.7172 136.109C55.3481 137.754 57.56 138.678 59.8665 138.678H132.895C135.201 138.678 137.413 137.754 139.044 136.109C140.675 134.464 141.591 132.233 141.592 129.907V79.877L129.27 87.914Z" fill="#FDAD13"/>
</g>
<g style="mix-blend-mode:screen">
<path d="M62.0459 112.781C62.0459 111.238 60.8055 109.987 59.2755 109.987C57.7455 109.987 56.5051 111.238 56.5051 112.781V118.197C56.5051 119.74 57.7455 120.991 59.2755 120.991C60.8055 120.991 62.0459 119.74 62.0459 118.197V112.781Z" fill="#FDAD13"/>
</g>
<g style="mix-blend-mode:screen">
<path d="M62.0459 104.446C62.0459 102.903 60.8055 101.652 59.2755 101.652C57.7455 101.652 56.5051 102.903 56.5051 104.446V105.179C56.5051 106.722 57.7455 107.973 59.2755 107.973C60.8055 107.973 62.0459 106.722 62.0459 105.179V104.446Z" fill="#FDAD13"/>
</g>
<path d="M70.5043 75.8047C69.2403 75.8047 68.2523 75.4847 67.5403 74.8447C66.8283 74.2127 66.4123 73.3127 66.2923 72.1447C66.2683 71.9127 66.2563 71.5687 66.2563 71.1127C66.2563 70.6327 66.2683 70.2927 66.2923 70.0927C66.4123 68.9567 66.8283 68.0607 67.5403 67.4047C68.2603 66.7407 69.2323 66.4087 70.4563 66.4087C71.8723 66.4087 72.9363 66.7287 73.6483 67.3687C74.3603 68.0007 74.7483 68.9087 74.8123 70.0927C74.8283 70.4127 74.8363 70.6607 74.8363 70.8367C74.8363 71.1967 74.8283 71.4727 74.8123 71.6647C74.7803 72.2407 74.6203 72.6807 74.3323 72.9847C74.0523 73.2887 73.6683 73.4407 73.1803 73.4407C72.8363 73.4407 72.5563 73.3687 72.3403 73.2247C72.1243 73.0807 71.9603 72.9247 71.8483 72.7567C71.7123 72.9807 71.5283 73.1727 71.2963 73.3327C71.0723 73.4847 70.7483 73.5607 70.3243 73.5607C69.7243 73.5607 69.2483 73.3487 68.8963 72.9247C68.5523 72.4927 68.3803 71.8887 68.3803 71.1127C68.3803 70.3367 68.5523 69.7327 68.8963 69.3007C69.2483 68.8687 69.7243 68.6527 70.3243 68.6527C70.6203 68.6527 70.8603 68.7087 71.0443 68.8207C71.2363 68.9247 71.4043 69.0607 71.5483 69.2287V69.0247C71.5483 68.9447 71.5723 68.8807 71.6203 68.8327C71.6763 68.7767 71.7443 68.7487 71.8243 68.7487H72.1483C72.2283 68.7487 72.2923 68.7767 72.3403 68.8327C72.3963 68.8807 72.4243 68.9447 72.4243 69.0247V71.5807C72.4243 71.9087 72.4923 72.1607 72.6283 72.3367C72.7643 72.5127 72.9483 72.6007 73.1803 72.6007C73.4603 72.6007 73.6523 72.4967 73.7563 72.2887C73.8683 72.0807 73.9283 71.8447 73.9363 71.5807C73.9523 71.3887 73.9603 71.1407 73.9603 70.8367C73.9603 70.7007 73.9523 70.4727 73.9363 70.1527C73.8643 69.1767 73.5563 68.4487 73.0123 67.9687C72.4763 67.4807 71.6243 67.2367 70.4563 67.2367C69.4883 67.2367 68.7243 67.4927 68.1643 68.0047C67.6123 68.5087 67.2803 69.2247 67.1683 70.1527C67.1443 70.3527 67.1323 70.6727 67.1323 71.1127C67.1323 71.5287 67.1443 71.8527 67.1683 72.0847C67.2643 73.0047 67.5963 73.7167 68.1643 74.2207C68.7323 74.7167 69.5123 74.9647 70.5043 74.9647C71.0243 74.9647 71.4523 74.9207 71.7883 74.8327C72.1323 74.7527 72.3803 74.6647 72.5323 74.5687C72.6923 74.4727 72.8763 74.3447 73.0843 74.1847C73.1003 74.1767 73.1363 74.1487 73.1923 74.1007C73.2483 74.0607 73.3163 74.0407 73.3963 74.0407H73.8763C73.9483 74.0407 74.0083 74.0647 74.0563 74.1127C74.1123 74.1607 74.1403 74.2247 74.1403 74.3047C74.1403 74.3687 74.1163 74.4247 74.0683 74.4727C73.7003 74.8727 73.2323 75.1927 72.6643 75.4327C72.1043 75.6807 71.3843 75.8047 70.5043 75.8047ZM70.3963 72.7207C70.8043 72.7207 71.0963 72.5847 71.2723 72.3127C71.4563 72.0327 71.5483 71.6327 71.5483 71.1127C71.5483 70.5927 71.4563 70.1927 71.2723 69.9127C71.0963 69.6327 70.8043 69.4927 70.3963 69.4927C70.0043 69.4927 69.7163 69.6367 69.5323 69.9247C69.3483 70.2047 69.2563 70.6007 69.2563 71.1127C69.2563 71.5847 69.3483 71.9727 69.5323 72.2767C69.7243 72.5727 70.0123 72.7207 70.3963 72.7207Z" fill="#B5BBC1"/>
<path d="M107.679 71.8945H81.6433C81.2063 71.8945 80.8521 72.2518 80.8521 72.6925V72.6935C80.8521 73.1343 81.2063 73.4915 81.6433 73.4915H107.679C108.116 73.4915 108.471 73.1343 108.471 72.6935V72.6925C108.471 72.2518 108.116 71.8945 107.679 71.8945Z" fill="#B5BBC1"/>
<path d="M121.542 77.2207H81.6492C81.2122 77.2207 80.8579 77.578 80.8579 78.0187V78.0197C80.8579 78.4604 81.2122 78.8177 81.6492 78.8177H121.542C121.979 78.8177 122.333 78.4604 122.333 78.0197V78.0187C122.333 77.578 121.979 77.2207 121.542 77.2207Z" fill="#B5BBC1"/>
<path opacity="0.149" d="M152.746 123.697C158.242 118.154 158.242 109.167 152.746 103.625C147.25 98.0821 138.339 98.0821 132.843 103.625C127.347 109.167 127.347 118.154 132.843 123.697C138.339 129.239 147.25 129.239 152.746 123.697Z" fill="#020202"/>
<path d="M150.9 121.391C156.395 115.848 156.395 106.861 150.9 101.319C145.404 95.776 136.493 95.776 130.997 101.319C125.502 106.861 125.502 115.848 130.997 121.391C136.493 126.933 145.404 126.933 150.9 121.391Z" fill="#FE693C"/>
<g style="mix-blend-mode:multiply" opacity="0.314">
<path d="M154.995 111.353C154.996 114.382 154.035 117.333 152.254 119.772C150.473 122.211 147.964 124.011 145.095 124.909C142.226 125.807 139.147 125.755 136.31 124.76C133.472 123.766 131.025 121.882 129.325 119.384C132.034 121.254 135.306 122.11 138.574 121.804C141.842 121.498 144.902 120.049 147.223 117.709C149.544 115.368 150.98 112.282 151.284 108.986C151.587 105.69 150.738 102.39 148.884 99.6587C150.769 100.959 152.311 102.704 153.376 104.742C154.441 106.78 154.997 109.049 154.995 111.353Z" fill="#FE693C"/>
</g>
<path d="M146.28 106.584C145.664 105.962 144.849 105.581 143.981 105.508C143.113 105.435 142.247 105.674 141.537 106.184C141.372 106.304 141.217 106.438 141.074 106.584C141.02 106.64 140.968 106.695 140.917 106.751C140.865 106.695 140.817 106.64 140.759 106.584C140.105 105.926 139.231 105.541 138.309 105.503C137.387 105.465 136.484 105.778 135.78 106.38C135.076 106.982 134.621 107.828 134.507 108.752C134.393 109.676 134.627 110.609 135.163 111.367L136.012 112.224L140.917 117.17L145.821 112.224L146.67 111.367C147.178 110.652 147.417 109.779 147.346 108.903C147.274 108.027 146.896 107.205 146.28 106.584Z" fill="white"/>
<g style="mix-blend-mode:screen">
<g style="mix-blend-mode:screen">
<path d="M129.993 112.147H129.971C129.622 112.141 129.29 111.997 129.046 111.744C128.803 111.492 128.669 111.153 128.673 110.801C128.725 106.963 131.131 99.6717 139.87 99.5527H139.889C140.232 99.5596 140.56 99.7016 140.802 99.9485C141.043 100.195 141.18 100.528 141.182 100.874C141.184 101.221 141.052 101.555 140.814 101.806C140.576 102.056 140.25 102.202 139.906 102.214C131.577 102.327 131.32 110.493 131.313 110.84C131.306 111.188 131.164 111.521 130.918 111.765C130.671 112.01 130.339 112.147 129.993 112.147Z" fill="#FE693C"/>
</g>
</g>
<g style="mix-blend-mode:multiply">
<g style="mix-blend-mode:multiply">
<path d="M36.3278 117.897H14.9273C13.5367 117.897 12.203 117.34 11.2197 116.348C10.2364 115.356 9.68398 114.011 9.68398 112.609C9.68398 111.207 10.2364 109.861 11.2197 108.87C12.203 107.878 13.5367 107.321 14.9273 107.321H36.3278C37.7184 107.321 39.052 107.878 40.0353 108.87C41.0186 109.861 41.571 111.207 41.571 112.609V112.609C41.571 114.011 41.0186 115.356 40.0353 116.348C39.052 117.34 37.7184 117.897 36.3278 117.897V117.897Z" fill="#CEEDED"/>
</g>
<g style="mix-blend-mode:multiply">
<path d="M26.6215 110.469H21.1214C19.7308 110.469 18.3971 109.912 17.4138 108.92C16.4305 107.928 15.8781 106.583 15.8781 105.181C15.8781 103.778 16.4305 102.433 17.4138 101.442C18.3971 100.45 19.7308 99.8927 21.1214 99.8927H26.6215C28.0121 99.8927 29.3457 100.45 30.329 101.442C31.3123 102.433 31.8647 103.778 31.8647 105.181V105.181C31.8647 106.583 31.3123 107.928 30.329 108.92C29.3457 109.912 28.0121 110.469 26.6215 110.469V110.469Z" fill="#CEEDED"/>
</g>
</g>
<path d="M34.6437 116.384H13.2432C11.8526 116.384 10.5189 115.827 9.53562 114.835C8.55231 113.843 7.9999 112.498 7.9999 111.096C7.9999 109.693 8.55231 108.348 9.53562 107.357C10.5189 106.365 11.8526 105.808 13.2432 105.808H34.6437C36.0343 105.808 37.3679 106.365 38.3512 107.357C39.3345 108.348 39.887 109.693 39.887 111.096V111.096C39.887 112.498 39.3345 113.843 38.3512 114.835C37.3679 115.827 36.0343 116.384 34.6437 116.384V116.384Z" fill="#13D2C2"/>
<path d="M24.9374 108.956H19.4373C18.0467 108.956 16.713 108.399 15.7297 107.407C14.7464 106.416 14.194 105.071 14.194 103.668C14.194 102.266 14.7464 100.921 15.7297 99.9289C16.713 98.9372 18.0467 98.3801 19.4373 98.3801H24.9374C26.328 98.3801 27.6616 98.9372 28.6449 99.9289C29.6282 100.921 30.1807 102.266 30.1807 103.668V103.668C30.1807 105.071 29.6282 106.416 28.6449 107.407C27.6616 108.399 26.328 108.956 24.9374 108.956V108.956Z" fill="#13D2C2"/>
<path d="M53.1724 62.4528C48.3525 65.7408 43.3987 69.1628 40.2426 74.0938C37.0865 79.0248 36.1703 85.9058 39.6239 90.6288C42.5757 94.6658 47.8537 96.1638 52.7936 96.7358C64.2598 98.0628 75.9402 95.7898 86.6855 91.5418C97.4309 87.2938 107.328 81.1228 116.796 74.4658C121.248 71.5096 125.386 68.0975 129.142 64.2838C133.239 59.8968 135.098 54.2838 137.533 48.8358C138.351 47.0048 139.083 44.6098 137.666 43.1978C137.251 42.8429 136.761 42.5881 136.234 42.4526C135.707 42.3171 135.156 42.3045 134.624 42.4158C133.551 42.574 132.539 43.0135 131.688 43.6903C130.838 44.3671 130.178 45.2574 129.775 46.2721C129.373 47.2869 129.242 48.3904 129.395 49.4723C129.549 50.5542 129.981 51.5765 130.65 52.4368C132.481 54.7938 135.833 55.5228 138.74 54.9078C141.618 54.1274 144.281 52.6904 146.521 50.7078C152.382 46.0484 157.427 40.4324 161.449 34.0928" stroke="#0284C4" stroke-miterlimit="10" stroke-dasharray="8 8"/>
<path d="M146.316 52.3738L156.239 43.0108L150.652 41.4458L146.316 52.3738Z" fill="#06637F"/>
<path d="M146.388 38.6398L146.323 52.3768L150.957 41.6918L178.532 19.7808L146.152 37.8318L146.388 38.6398Z" fill="#0775A0"/>
<path d="M138.319 34.7748L146.491 38.5548L178.53 19.7798L138.367 33.7928C138.268 33.8275 138.181 33.8912 138.119 33.9758C138.056 34.0604 138.019 34.162 138.014 34.2676C138.009 34.3731 138.035 34.4778 138.09 34.5682C138.144 34.6586 138.224 34.7305 138.319 34.7748Z" fill="#0284C4"/>
<path d="M178.531 19.7798L150.957 41.6908L161.539 46.8558C161.706 46.9373 161.898 46.9529 162.075 46.8997C162.253 46.8464 162.405 46.728 162.501 46.5678L178.531 19.7798Z" fill="#0284C4"/>
<g style="mix-blend-mode:screen">
<path d="M144.157 34.0367L163.111 26.7188" stroke="#0284C4" stroke-width="3" stroke-miterlimit="10" stroke-linecap="round"/>
</g>
<path opacity="0.497" d="M35.5617 68.466C35.5615 68.9537 35.4179 69.4304 35.1491 69.8358C34.8803 70.2412 34.4984 70.5571 34.0516 70.7436C33.6048 70.9301 33.1131 70.9788 32.6389 70.8835C32.1647 70.7883 31.7291 70.5533 31.3872 70.2084C31.0453 69.8635 30.8126 69.4241 30.7183 68.9457C30.624 68.4674 30.6725 67.9716 30.8576 67.5211C31.0427 67.0705 31.3561 66.6855 31.7582 66.4146C32.1603 66.1436 32.633 65.999 33.1165 65.999C33.4377 65.999 33.7558 66.0628 34.0525 66.1868C34.3492 66.3108 34.6188 66.4926 34.8459 66.7216C35.0729 66.9507 35.253 67.2227 35.3758 67.522C35.4987 67.8213 35.5618 68.1421 35.5617 68.466Z" fill="white"/>
<path opacity="0.497" d="M84.2111 35.0676C84.2111 35.5552 84.0678 36.0318 83.7992 36.4373C83.5307 36.8428 83.149 37.1588 82.7024 37.3456C82.2557 37.5323 81.7643 37.5813 81.29 37.4864C80.8158 37.3915 80.3801 37.1569 80.038 36.8123C79.6959 36.4678 79.4628 36.0287 79.3681 35.5505C79.2735 35.0723 79.3215 34.5766 79.5061 34.1259C79.6907 33.6753 80.0036 33.2899 80.4053 33.0186C80.8071 32.7473 81.2795 32.6022 81.763 32.6016C82.0843 32.6013 82.4025 32.6649 82.6995 32.7887C82.9964 32.9125 83.2663 33.0941 83.4936 33.3231C83.7209 33.5521 83.9013 33.824 84.0244 34.1233C84.1475 34.4226 84.211 34.7435 84.2111 35.0676Z" fill="white"/>
<path opacity="0.497" d="M45.4577 124.128C45.4577 124.616 45.3143 125.093 45.0457 125.498C44.777 125.904 44.3952 126.22 43.9485 126.406C43.5017 126.593 43.0102 126.642 42.5359 126.547C42.0616 126.452 41.6259 126.217 41.2839 125.872C40.9419 125.527 40.7089 125.088 40.6145 124.61C40.52 124.132 40.5683 123.636 40.7532 123.185C40.9381 122.734 41.2514 122.349 41.6534 122.078C42.0553 121.807 42.528 121.662 43.0115 121.662C43.6601 121.662 44.2822 121.922 44.7409 122.384C45.1996 122.847 45.4574 123.474 45.4577 124.128Z" fill="white"/>
<path opacity="0.497" d="M24.581 81.6148C27.2112 81.6148 29.3434 79.4644 29.3434 76.8118C29.3434 74.1592 27.2112 72.0088 24.581 72.0088C21.9508 72.0088 19.8186 74.1592 19.8186 76.8118C19.8186 79.4644 21.9508 81.6148 24.581 81.6148Z" fill="white"/>
<path opacity="0.497" d="M165.693 104.388C167.192 102.876 167.192 100.424 165.693 98.911C164.193 97.3985 161.762 97.3985 160.262 98.911C158.762 100.424 158.762 102.876 160.262 104.388C161.762 105.901 164.193 105.901 165.693 104.388Z" fill="white"/>
<path opacity="0.497" d="M165.731 111.407C165.731 111.939 165.575 112.459 165.282 112.901C164.989 113.344 164.572 113.688 164.085 113.892C163.598 114.096 163.061 114.149 162.544 114.045C162.026 113.941 161.551 113.685 161.178 113.309C160.805 112.933 160.551 112.453 160.448 111.932C160.345 111.41 160.398 110.869 160.6 110.377C160.802 109.886 161.144 109.466 161.582 109.17C162.021 108.875 162.537 108.717 163.064 108.717C163.772 108.717 164.45 109 164.95 109.505C165.45 110.009 165.731 110.693 165.731 111.407Z" fill="white"/>
<g style="mix-blend-mode:multiply" opacity="0.332">
<path d="M52.9263 85.4258L96.2875 114.61L137.714 88.2648" stroke="#FDAD13" stroke-width="2" stroke-linecap="round" stroke-linejoin="round"/>
</g>
<g style="mix-blend-mode:multiply">
<g style="mix-blend-mode:multiply">
<path d="M179.71 78.1177H154.04C150.567 78.1177 147.751 80.9575 147.751 84.4607C147.751 87.9638 150.567 90.8037 154.04 90.8037H179.71C183.184 90.8037 186 87.9638 186 84.4607C186 80.9575 183.184 78.1177 179.71 78.1177Z" fill="#CEEDED"/>
</g>
<g style="mix-blend-mode:multiply">
<path d="M167.453 69.208H160.855C157.381 69.208 154.565 72.0479 154.565 75.551C154.565 79.0541 157.381 81.894 160.855 81.894H167.453C170.926 81.894 173.742 79.0541 173.742 75.551C173.742 72.0479 170.926 69.208 167.453 69.208Z" fill="#CEEDED"/>
</g>
</g>
<path d="M176.865 75.8516H151.195C147.722 75.8516 144.906 78.6914 144.906 82.1946C144.906 85.6977 147.722 88.5376 151.195 88.5376H176.865C180.339 88.5376 183.155 85.6977 183.155 82.1946C183.155 78.6914 180.339 75.8516 176.865 75.8516Z" fill="#13D2C2"/>
<path d="M164.606 66.9419H158.009C154.535 66.9419 151.719 69.7818 151.719 73.2849C151.719 76.788 154.535 79.6279 158.009 79.6279H164.606C168.08 79.6279 170.896 76.788 170.896 73.2849C170.896 69.7818 168.08 66.9419 164.606 66.9419Z" fill="#13D2C2"/>
<g style="mix-blend-mode:screen">
<path d="M154.564 75.5495C154.564 75.5495 152.514 69.8685 158.583 68.9375" stroke="#13D2C2" stroke-width="4" stroke-miterlimit="10" stroke-linecap="round"/>
</g>
<g style="mix-blend-mode:screen">
<path d="M54.9855 40.1569C54.9855 40.1569 52.935 34.4759 59.0042 33.5449" stroke="#13D2C2" stroke-width="4" stroke-miterlimit="10" stroke-linecap="round"/>
</g>
<g style="mix-blend-mode:screen">
<path d="M17.6632 106.686C17.6632 106.686 15.6127 101.005 21.682 100.074" stroke="#13D2C2" stroke-width="4" stroke-miterlimit="10" stroke-linecap="round"/>
</g>
<defs>
<filter id="filter0_d" x="0.170898" y="-0.000976562" width="196.428" height="168.001" filterUnits="userSpaceOnUse" color-interpolation-filters="sRGB">
<feFlood flood-opacity="0" result="BackgroundImageFix"/>
<feColorMatrix in="SourceAlpha" type="matrix" values="0 0 0 0 0 0 0 0 0 0 0 0 0 0 0 0 0 0 127 0"/>
<feOffset dx="2" dy="8"/>
<feGaussianBlur stdDeviation="8"/>
<feColorMatrix type="matrix" values="0 0 0 0 0 0 0 0 0 0 0 0 0 0 0 0 0 0 0.06 0"/>
<feBlend mode="normal" in2="BackgroundImageFix" result="effect1_dropShadow"/>
<feBlend mode="normal" in="SourceGraphic" in2="effect1_dropShadow" result="shape"/>
</filter>
</defs>
</svg>
