<svg id="katman_1" data-name="katman 1" xmlns="http://www.w3.org/2000/svg" viewBox="0 0 178 151.19"><defs><style>.cls-1{fill:#ffd736;}.cls-2{fill:#17212f;}</style></defs><rect class="cls-1" x="15.05" y="127.21" width="51" height="10"/><path class="cls-2" d="M721.75,451.68h-1v4.23h1a2.14,2.14,0,0,0,1.59-.52,2.23,2.23,0,0,0,.51-1.6,1.85,1.85,0,0,0-2.1-2.11Z" transform="translate(-659.95 -321.79)"/><path class="cls-2" d="M700.76,454.45h-1.52v1.61h1.52a1.13,1.13,0,0,0,.76-.21.73.73,0,0,0,.24-.6.76.76,0,0,0-.24-.61A1.2,1.2,0,0,0,700.76,454.45Z" transform="translate(-659.95 -321.79)"/><path class="cls-2" d="M713.73,451.68h-1v4.23h1a2.14,2.14,0,0,0,1.59-.52,2.23,2.23,0,0,0,.51-1.6,1.85,1.85,0,0,0-2.1-2.11Z" transform="translate(-659.95 -321.79)"/><path class="cls-2" d="M694.17,452.86a.69.69,0,0,0,.24-.57.67.67,0,0,0-.24-.57,1.26,1.26,0,0,0-.75-.18h-1.34V453h1.34A1.26,1.26,0,0,0,694.17,452.86Z" transform="translate(-659.95 -321.79)"/><path class="cls-2" d="M701.33,452.86a.69.69,0,0,0,.24-.57.67.67,0,0,0-.24-.57,1.26,1.26,0,0,0-.75-.18h-1.34V453h1.34A1.26,1.26,0,0,0,701.33,452.86Z" transform="translate(-659.95 -321.79)"/><path class="cls-2" d="M827,321.79H671A11.1,11.1,0,0,0,660,333V461.78A11.1,11.1,0,0,0,671,473H827a11.1,11.1,0,0,0,11-11.2V333A11.11,11.11,0,0,0,827,321.79ZM681.36,456.46a2.38,2.38,0,0,1-1.06.82,4,4,0,0,1-1.61.29,6.25,6.25,0,0,1-1.28-.13,4.05,4.05,0,0,1-1.13-.37.81.81,0,0,1-.39-.36.86.86,0,0,1-.08-.47,1,1,0,0,1,.17-.44.73.73,0,0,1,.38-.26.79.79,0,0,1,.53.07,3.64,3.64,0,0,0,.88.3,5,5,0,0,0,.92.09,1.8,1.8,0,0,0,.94-.18.53.53,0,0,0,.27-.45.44.44,0,0,0-.19-.38,1.7,1.7,0,0,0-.67-.25l-1.19-.26c-1.29-.29-1.94-1-1.94-2.07a2.16,2.16,0,0,1,.38-1.26,2.43,2.43,0,0,1,1.07-.83A4,4,0,0,1,679,450a5.1,5.1,0,0,1,1.08.12,3.07,3.07,0,0,1,.94.36.74.74,0,0,1,.39.45.89.89,0,0,1,0,.56.69.69,0,0,1-.36.39.82.82,0,0,1-.66,0,2.84,2.84,0,0,0-.68-.2,3.49,3.49,0,0,0-.71-.07,1.66,1.66,0,0,0-.88.2.62.62,0,0,0-.3.53.46.46,0,0,0,.18.37,1.65,1.65,0,0,0,.65.25l1.19.26c1.31.28,2,1,2,2A2.1,2.1,0,0,1,681.36,456.46Zm7.67-2.12a3.27,3.27,0,0,1-.81,2.42,3.22,3.22,0,0,1-2.38.81,3.29,3.29,0,0,1-2.4-.81,3.2,3.2,0,0,1-.84-2.42V451a1,1,0,0,1,.25-.72.9.9,0,0,1,.69-.25.94.94,0,0,1,.7.25,1,1,0,0,1,.24.72v3.35a1.82,1.82,0,0,0,.35,1.21,1.46,1.46,0,0,0,2,0,1.82,1.82,0,0,0,.34-1.21V451a1,1,0,0,1,.24-.72,1.08,1.08,0,0,1,1.38,0,1.05,1.05,0,0,1,.23.72Zm6.68,2.56a2.84,2.84,0,0,1-1.85.56h-2.59a.87.87,0,0,1-1-1v-5.35a.86.86,0,0,1,1-1h2.49a2.83,2.83,0,0,1,1.8.51,1.68,1.68,0,0,1,.63,1.38,1.72,1.72,0,0,1-.28,1,1.6,1.6,0,0,1-.78.64,1.69,1.69,0,0,1,1.26,1.72A1.86,1.86,0,0,1,695.71,456.9Zm7.16,0a2.84,2.84,0,0,1-1.85.56h-2.59a.87.87,0,0,1-1-1v-5.35a.86.86,0,0,1,1-1h2.49a2.83,2.83,0,0,1,1.8.51,1.69,1.69,0,0,1,.64,1.38,1.8,1.8,0,0,1-.28,1,.67.67,0,1,0,.14,1.27,1.75,1.75,0,0,1,.33,1.09A1.86,1.86,0,0,1,702.87,456.9Zm6-3.9a.74.74,0,1,1,0,1.48h-2.41V456h2.64a.74.74,0,0,1,0,1.48h-3.46a.87.87,0,0,1-1-1v-5.35a.86.86,0,0,1,1-1h3.46a.64.64,0,0,1,.73.72.65.65,0,0,1-.73.75h-2.64V453Zm7.93,3.5a4.09,4.09,0,0,1-2.9,1h-2a.86.86,0,0,1-1-1v-5.35a.86.86,0,0,1,1-1h2a4.09,4.09,0,0,1,2.9.95,4.07,4.07,0,0,1,0,5.41Zm8,0a4.09,4.09,0,0,1-2.9,1h-2a.86.86,0,0,1-1-1v-5.35a.86.86,0,0,1,1-1h2a4.09,4.09,0,0,1,2.9.95,4.07,4.07,0,0,1,0,5.41Zm97.33,3.41a4,4,0,0,1-4,4.07h-42a4,4,0,0,1-4-4.07V447.69a4,4,0,0,1,4-4.07h42a4,4,0,0,1,4,4.07ZM834,424.62a11.1,11.1,0,0,1-11,11.2H675a11.1,11.1,0,0,1-11-11.2V337.06a11.1,11.1,0,0,1,11-11.2H823a11.11,11.11,0,0,1,11,11.2Z" transform="translate(-659.95 -321.79)"/><path class="cls-2" d="M693.6,454.45h-1.52v1.61h1.52a1.13,1.13,0,0,0,.76-.21.73.73,0,0,0,.24-.6.76.76,0,0,0-.24-.61A1.2,1.2,0,0,0,693.6,454.45Z" transform="translate(-659.95 -321.79)"/><path class="cls-1" d="M818.4,449.22h-8.7a.39.39,0,0,0-.3.64l2.06,2.52,2.29,2.8a.39.39,0,0,0,.6,0l2.29-2.8,2.06-2.52A.39.39,0,0,0,818.4,449.22Z" transform="translate(-659.95 -321.79)"/><path class="cls-1" d="M776.91,452.27h15a1.53,1.53,0,0,0,0-3h-15a1.53,1.53,0,0,0,0,3Z" transform="translate(-659.95 -321.79)"/><path class="cls-1" d="M803.91,449.22h-8a1.53,1.53,0,0,0,0,3h8a1.53,1.53,0,0,0,0-3Z" transform="translate(-659.95 -321.79)"/><path class="cls-1" d="M803.91,455.32h-27a1.53,1.53,0,0,0,0,3.06h27a1.53,1.53,0,0,0,0-3.06Z" transform="translate(-659.95 -321.79)"/></svg>