<svg id="katman_1" data-name="katman 1" xmlns="http://www.w3.org/2000/svg" viewBox="0 0 81 67.6"><defs><style>.cls-1{fill:#17212f;}</style></defs><path class="cls-1" d="M954.12,540.32h-.44v1.89h.44a1,1,0,0,0,.73-.23,1,1,0,0,0,.23-.71.84.84,0,0,0-1-.95Z" transform="translate(-926 -482.25)"/><path class="cls-1" d="M944.57,541.56h-.69v.72h.69a.54.54,0,0,0,.35-.09.34.34,0,0,0,.11-.27.31.31,0,0,0-.11-.27A.54.54,0,0,0,944.57,541.56Z" transform="translate(-926 -482.25)"/><path class="cls-1" d="M950.47,540.32H950v1.89h.44a1,1,0,0,0,.73-.23,1,1,0,0,0,.23-.71.84.84,0,0,0-1-.95Z" transform="translate(-926 -482.25)"/><path class="cls-1" d="M941.57,540.85a.32.32,0,0,0,.11-.26.3.3,0,0,0-.11-.25.52.52,0,0,0-.34-.08h-.61v.67h.61A.58.58,0,0,0,941.57,540.85Z" transform="translate(-926 -482.25)"/><path class="cls-1" d="M944.83,540.85a.32.32,0,0,0,.11-.26.3.3,0,0,0-.11-.25.53.53,0,0,0-.34-.08h-.61v.67h.61A.61.61,0,0,0,944.83,540.85Z" transform="translate(-926 -482.25)"/><path class="cls-1" d="M1002,482.25H931a5,5,0,0,0-5,5v57.58a5,5,0,0,0,5,5h71a5,5,0,0,0,5-5V487.26A5,5,0,0,0,1002,482.25Zm-66.25,60.21a1.07,1.07,0,0,1-.48.37,2,2,0,0,1-.73.13,3,3,0,0,1-.59-.06,2,2,0,0,1-.51-.17.4.4,0,0,1-.18-.16.41.41,0,0,1,0-.41.34.34,0,0,1,.17-.11.35.35,0,0,1,.24,0,1.57,1.57,0,0,0,.4.13,2.12,2.12,0,0,0,.42,0,.8.8,0,0,0,.43-.08.23.23,0,0,0,.12-.2.2.2,0,0,0-.09-.17.82.82,0,0,0-.3-.11l-.54-.12c-.59-.13-.89-.43-.89-.92a.89.89,0,0,1,.18-.56,1,1,0,0,1,.48-.38,1.83,1.83,0,0,1,.73-.13,2.81,2.81,0,0,1,.49,0,1.67,1.67,0,0,1,.43.16.33.33,0,0,1,.17.2.36.36,0,0,1,0,.25.31.31,0,0,1-.16.18.36.36,0,0,1-.3,0,1.4,1.4,0,0,0-.31-.09l-.32,0a.72.72,0,0,0-.4.09.28.28,0,0,0-.14.24.21.21,0,0,0,.08.16.73.73,0,0,0,.3.11l.54.12c.6.13.89.43.89.9A.91.91,0,0,1,935.74,542.46Zm3.49-1a1.3,1.3,0,0,1-1.45,1.45,1.47,1.47,0,0,1-1.09-.37,1.4,1.4,0,0,1-.38-1.08V540a.39.39,0,0,1,.43-.43.43.43,0,0,1,.31.11.4.4,0,0,1,.11.32v1.5a.83.83,0,0,0,.16.54.68.68,0,0,0,.92,0,.83.83,0,0,0,.15-.54V540a.44.44,0,0,1,.11-.32.46.46,0,0,1,.32-.11.43.43,0,0,1,.31.11.44.44,0,0,1,.1.32Zm3,1.15a1.31,1.31,0,0,1-.84.24h-1.18c-.3,0-.45-.14-.45-.44v-2.39a.39.39,0,0,1,.45-.44h1.13a1.29,1.29,0,0,1,.82.23.73.73,0,0,1,.29.62.81.81,0,0,1-.12.44.77.77,0,0,1-.36.28.8.8,0,0,1,.42.29.77.77,0,0,1,.15.49A.83.83,0,0,1,942.27,542.66Zm3.26,0a1.31,1.31,0,0,1-.84.24h-1.18c-.3,0-.45-.14-.45-.44v-2.39a.39.39,0,0,1,.45-.44h1.13a1.29,1.29,0,0,1,.82.23.73.73,0,0,1,.29.62.74.74,0,0,1-.13.44.7.7,0,0,1-.35.28.8.8,0,0,1,.42.29.77.77,0,0,1,.15.49A.83.83,0,0,1,945.53,542.66Zm2.71-1.75a.33.33,0,0,1,0,.66h-1.1v.67h1.2c.23,0,.34.11.34.33s-.11.33-.34.33h-1.57c-.3,0-.45-.14-.45-.44v-2.39a.39.39,0,0,1,.45-.44h1.57c.23,0,.34.11.34.33s-.11.33-.34.33h-1.2v.62Zm3.61,1.56a1.86,1.86,0,0,1-1.32.43h-.91c-.3,0-.45-.14-.45-.44v-2.39a.39.39,0,0,1,.45-.44h.91a1.86,1.86,0,0,1,1.32.43,1.56,1.56,0,0,1,.47,1.21A1.54,1.54,0,0,1,951.85,542.47Zm3.65,0a1.87,1.87,0,0,1-1.32.43h-.91c-.3,0-.45-.14-.45-.44v-2.39a.39.39,0,0,1,.45-.44h.91a1.87,1.87,0,0,1,1.32.43,1.56,1.56,0,0,1,.47,1.21A1.54,1.54,0,0,1,955.5,542.47ZM999.79,544a1.83,1.83,0,0,1-1.82,1.82H978.85A1.83,1.83,0,0,1,977,544v-5.46a1.82,1.82,0,0,1,1.82-1.82H998a1.82,1.82,0,0,1,1.82,1.82Zm5.39-15.78a5,5,0,0,1-5,5H932.83a5,5,0,0,1-5-5V489.08a5,5,0,0,1,5-5h67.34a5,5,0,0,1,5,5Z" transform="translate(-926 -482.25)"/><path class="cls-1" d="M941.31,541.56h-.69v.72h.69a.54.54,0,0,0,.35-.09.34.34,0,0,0,.11-.27.31.31,0,0,0-.11-.27A.54.54,0,0,0,941.31,541.56Z" transform="translate(-926 -482.25)"/><path class="cls-1" d="M998.1,539.22h-4a.18.18,0,0,0-.14.29l.94,1.12,1,1.26a.18.18,0,0,0,.27,0l1-1.26.94-1.12A.18.18,0,0,0,998.1,539.22Z" transform="translate(-926 -482.25)"/><path class="cls-1" d="M979.22,540.58h6.83a.68.68,0,0,0,0-1.36h-6.83a.68.68,0,1,0,0,1.36Z" transform="translate(-926 -482.25)"/><path class="cls-1" d="M991.51,539.22h-3.64a.68.68,0,0,0,0,1.36h3.64a.68.68,0,0,0,0-1.36Z" transform="translate(-926 -482.25)"/><path class="cls-1" d="M991.51,542H979.22a.69.69,0,0,0,0,1.37h12.29a.69.69,0,0,0,0-1.37Z" transform="translate(-926 -482.25)"/><path class="cls-1" d="M966.6,500.62a8,8,0,1,0,8,8A8,8,0,0,0,966.6,500.62Zm2.8,8.27-3.9,2.6a.37.37,0,0,1-.18.05.32.32,0,0,1-.32-.32V506a.35.35,0,0,1,0-.18.32.32,0,0,1,.45-.09h0l3.9,2.6a.38.38,0,0,1,.09.09A.32.32,0,0,1,969.4,508.89Z" transform="translate(-926 -482.25)"/></svg>