<svg width="273" height="73" viewBox="0 0 273 73" fill="none" xmlns="http://www.w3.org/2000/svg">
<path d="M30.1516 66.0144C30.2028 66.1253 30.2284 66.2363 30.2284 66.3472C30.2284 66.5435 30.1474 66.7099 29.9852 66.8464C29.8316 66.9829 29.6524 67.0512 29.4476 67.0512C29.3111 67.0512 29.1831 67.0171 29.0636 66.9488C28.9442 66.872 28.8503 66.7568 28.782 66.6032L28.014 64.888H23.5084L22.7404 66.6032C22.6722 66.7568 22.5783 66.872 22.4588 66.9488C22.3394 67.0171 22.2071 67.0512 22.062 67.0512C21.8658 67.0512 21.6866 66.9829 21.5244 66.8464C21.3623 66.7099 21.2812 66.5435 21.2812 66.3472C21.2812 66.2363 21.3068 66.1253 21.358 66.0144L24.8908 58.424C24.9676 58.2533 25.0828 58.1253 25.2364 58.04C25.3986 57.9461 25.5692 57.8992 25.7484 57.8992C25.9276 57.8992 26.094 57.9461 26.2476 58.04C26.4098 58.1253 26.5292 58.2533 26.606 58.424L30.1516 66.0144ZM24.0716 63.608H27.4508L25.7612 59.8064L24.0716 63.608ZM32.266 67C32.0186 67 31.8223 66.9317 31.6772 66.7952C31.5407 66.6587 31.4724 66.4667 31.4724 66.2192V58.7568C31.4724 58.5093 31.5407 58.3173 31.6772 58.1808C31.8223 58.0443 32.0186 57.976 32.266 57.976H34.8004C36.2767 57.976 37.4202 58.3728 38.2308 59.1664C39.05 59.9515 39.4596 61.0565 39.4596 62.4816C39.4596 63.9152 39.05 65.0288 38.2308 65.8224C37.4202 66.6075 36.2767 67 34.8004 67H32.266ZM34.698 65.656C36.7716 65.656 37.8084 64.5979 37.8084 62.4816C37.8084 60.3739 36.7716 59.32 34.698 59.32H33.1236V65.656H34.698ZM41.916 67C41.6686 67 41.4723 66.9317 41.3272 66.7952C41.1907 66.6587 41.1224 66.4667 41.1224 66.2192V58.7568C41.1224 58.5093 41.1907 58.3173 41.3272 58.1808C41.4723 58.0443 41.6686 57.976 41.916 57.976H44.4504C45.9267 57.976 47.0702 58.3728 47.8808 59.1664C48.7 59.9515 49.1096 61.0565 49.1096 62.4816C49.1096 63.9152 48.7 65.0288 47.8808 65.8224C47.0702 66.6075 45.9267 67 44.4504 67H41.916ZM44.348 65.656C46.4216 65.656 47.4584 64.5979 47.4584 62.4816C47.4584 60.3739 46.4216 59.32 44.348 59.32H42.7736V65.656H44.348ZM57.3706 67.1152C56.7136 67.1152 56.0906 67.0299 55.5018 66.8592C54.9216 66.68 54.448 66.4411 54.081 66.1424C53.8848 65.9973 53.7866 65.7925 53.7866 65.528C53.7866 65.3488 53.8378 65.1952 53.9402 65.0672C54.0512 64.9307 54.1792 64.8624 54.3242 64.8624C54.4778 64.8624 54.6528 64.9221 54.849 65.0416C55.216 65.3061 55.6 65.4981 56.001 65.6176C56.4021 65.7371 56.8458 65.7968 57.3322 65.7968C57.9552 65.7968 58.433 65.6901 58.7658 65.4768C59.0986 65.2549 59.265 64.9349 59.265 64.5168C59.265 64.1925 59.1072 63.9451 58.7914 63.7744C58.4842 63.5952 57.968 63.4245 57.2426 63.2624C56.4917 63.1003 55.8816 62.9125 55.4122 62.6992C54.9429 62.4859 54.5888 62.2128 54.3498 61.88C54.1109 61.5472 53.9914 61.1248 53.9914 60.6128C53.9914 60.0837 54.1408 59.6101 54.4394 59.192C54.7381 58.7739 55.152 58.4496 55.681 58.2192C56.2186 57.9803 56.8202 57.8608 57.4858 57.8608C58.7061 57.8608 59.7002 58.1851 60.4682 58.8336C60.5792 58.9275 60.656 59.0213 60.6986 59.1152C60.7498 59.2005 60.7754 59.3115 60.7754 59.448C60.7754 59.6272 60.72 59.7851 60.609 59.9216C60.5066 60.0496 60.3829 60.1136 60.2378 60.1136C60.1525 60.1136 60.0714 60.1008 59.9946 60.0752C59.9264 60.0496 59.8325 60.0027 59.713 59.9344C59.3632 59.6784 59.0218 59.4907 58.689 59.3712C58.3648 59.2432 57.9637 59.1792 57.4858 59.1792C56.9056 59.1792 56.4448 59.2987 56.1034 59.5376C55.7706 59.768 55.6042 60.0923 55.6042 60.5104C55.6042 60.8603 55.7536 61.1291 56.0522 61.3168C56.3509 61.5045 56.8586 61.6795 57.5754 61.8416C58.3349 62.0123 58.9493 62.2043 59.4186 62.4176C59.8965 62.6224 60.2592 62.8869 60.5066 63.2112C60.7626 63.5355 60.8906 63.9408 60.8906 64.4272C60.8906 64.9563 60.7413 65.4256 60.4426 65.8352C60.1525 66.2363 59.7386 66.552 59.201 66.7824C58.672 67.0043 58.0618 67.1152 57.3706 67.1152ZM66.1347 67.1152C64.8974 67.1152 63.9587 66.7952 63.3187 66.1552C62.6787 65.5152 62.3587 64.5808 62.3587 63.352V58.7312C62.3587 58.4837 62.4313 58.2875 62.5763 58.1424C62.7214 57.9888 62.9177 57.912 63.1651 57.912C63.4126 57.912 63.6089 57.9888 63.7539 58.1424C63.899 58.2875 63.9715 58.4837 63.9715 58.7312V63.4416C63.9715 64.2181 64.155 64.8069 64.5219 65.208C64.8889 65.6005 65.4265 65.7968 66.1347 65.7968C66.8345 65.7968 67.3678 65.5963 67.7347 65.1952C68.1017 64.7941 68.2851 64.2096 68.2851 63.4416V58.7312C68.2851 58.4837 68.3577 58.2875 68.5027 58.1424C68.6478 57.9888 68.8441 57.912 69.0915 57.912C69.339 57.912 69.5353 57.9888 69.6803 58.1424C69.8254 58.2875 69.8979 58.4837 69.8979 58.7312V63.352C69.8979 64.5723 69.5779 65.5067 68.9379 66.1552C68.2979 66.7952 67.3635 67.1152 66.1347 67.1152ZM77.3526 62.3408C77.8732 62.4859 78.2742 62.7504 78.5558 63.1344C78.846 63.5184 78.991 63.9877 78.991 64.5424C78.991 65.3104 78.7137 65.912 78.159 66.3472C77.6129 66.7824 76.8577 67 75.8934 67H72.591C72.3436 67 72.1473 66.9317 72.0022 66.7952C71.8657 66.6587 71.7974 66.4667 71.7974 66.2192V58.7568C71.7974 58.5093 71.8657 58.3173 72.0022 58.1808C72.1473 58.0443 72.3436 57.976 72.591 57.976H75.7654C76.7041 57.976 77.438 58.1851 77.967 58.6032C78.5046 59.0128 78.7734 59.5888 78.7734 60.3312C78.7734 60.8091 78.6454 61.2229 78.3894 61.5728C78.142 61.9227 77.7964 62.1787 77.3526 62.3408ZM73.4102 61.7776H75.4966C76.6316 61.7776 77.199 61.3552 77.199 60.5104C77.199 60.0837 77.0582 59.768 76.7766 59.5632C76.495 59.3584 76.0684 59.256 75.4966 59.256H73.4102V61.7776ZM75.7142 65.72C76.3116 65.72 76.7468 65.6133 77.0198 65.4C77.2929 65.1867 77.4294 64.8539 77.4294 64.4016C77.4294 63.9493 77.2886 63.6123 77.007 63.3904C76.734 63.1685 76.303 63.0576 75.7142 63.0576H73.4102V65.72H75.7142ZM83.3667 67.064C83.1107 67.064 82.9059 66.9915 82.7523 66.8464C82.6073 66.6928 82.5347 66.4923 82.5347 66.2448V59.3328H80.2051C79.6931 59.3328 79.4371 59.1067 79.4371 58.6544C79.4371 58.2021 79.6931 57.976 80.2051 57.976H86.5155C87.0275 57.976 87.2835 58.2021 87.2835 58.6544C87.2835 59.1067 87.0275 59.3328 86.5155 59.3328H84.1859V66.2448C84.1859 66.4923 84.1091 66.6928 83.9555 66.8464C83.8105 66.9915 83.6142 67.064 83.3667 67.064ZM89.0791 67.0768C88.8317 67.0768 88.6311 67 88.4775 66.8464C88.3325 66.6928 88.2599 66.4923 88.2599 66.2448V58.7312C88.2599 58.4837 88.3325 58.2875 88.4775 58.1424C88.6311 57.9888 88.8317 57.912 89.0791 57.912C89.3351 57.912 89.5357 57.9888 89.6807 58.1424C89.8343 58.2875 89.9111 58.4837 89.9111 58.7312V66.2448C89.9111 66.4923 89.8343 66.6928 89.6807 66.8464C89.5357 67 89.3351 67.0768 89.0791 67.0768ZM94.8167 67.064C94.5607 67.064 94.3559 66.9915 94.2023 66.8464C94.0573 66.6928 93.9847 66.4923 93.9847 66.2448V59.3328H91.6551C91.1431 59.3328 90.8871 59.1067 90.8871 58.6544C90.8871 58.2021 91.1431 57.976 91.6551 57.976H97.9655C98.4775 57.976 98.7335 58.2021 98.7335 58.6544C98.7335 59.1067 98.4775 59.3328 97.9655 59.3328H95.6359V66.2448C95.6359 66.4923 95.5591 66.6928 95.4055 66.8464C95.2605 66.9915 95.0642 67.064 94.8167 67.064ZM100.491 67C100.243 67 100.051 66.9317 99.9147 66.7952C99.7782 66.6587 99.7099 66.4709 99.7099 66.232V58.7312C99.7099 58.4837 99.7825 58.2875 99.9275 58.1424C100.081 57.9888 100.282 57.912 100.529 57.912C100.785 57.912 100.986 57.9888 101.131 58.1424C101.284 58.2875 101.361 58.4837 101.361 58.7312V65.6432H104.958C105.47 65.6432 105.726 65.8693 105.726 66.3216C105.726 66.7739 105.47 67 104.958 67H100.491ZM107.604 67C107.356 67 107.16 66.9317 107.015 66.7952C106.878 66.6587 106.81 66.4667 106.81 66.2192V58.7568C106.81 58.5093 106.878 58.3173 107.015 58.1808C107.16 58.0443 107.356 57.976 107.604 57.976H112.224C112.472 57.976 112.664 58.0315 112.8 58.1424C112.937 58.2533 113.005 58.4112 113.005 58.616C113.005 58.8293 112.937 58.9957 112.8 59.1152C112.664 59.2261 112.472 59.2816 112.224 59.2816H108.423V61.7648H111.968C112.216 61.7648 112.408 61.8203 112.544 61.9312C112.681 62.0421 112.749 62.2043 112.749 62.4176C112.749 62.6224 112.681 62.7803 112.544 62.8912C112.408 63.0021 112.216 63.0576 111.968 63.0576H108.423V65.6944H112.224C112.472 65.6944 112.664 65.7541 112.8 65.8736C112.937 65.9845 113.005 66.1467 113.005 66.36C113.005 66.5648 112.937 66.7227 112.8 66.8336C112.664 66.9445 112.472 67 112.224 67H107.604ZM117.346 67.1152C116.689 67.1152 116.066 67.0299 115.477 66.8592C114.897 66.68 114.423 66.4411 114.056 66.1424C113.86 65.9973 113.762 65.7925 113.762 65.528C113.762 65.3488 113.813 65.1952 113.915 65.0672C114.026 64.9307 114.154 64.8624 114.299 64.8624C114.453 64.8624 114.628 64.9221 114.824 65.0416C115.191 65.3061 115.575 65.4981 115.976 65.6176C116.377 65.7371 116.821 65.7968 117.307 65.7968C117.93 65.7968 118.408 65.6901 118.741 65.4768C119.074 65.2549 119.24 64.9349 119.24 64.5168C119.24 64.1925 119.082 63.9451 118.766 63.7744C118.459 63.5952 117.943 63.4245 117.218 63.2624C116.467 63.1003 115.857 62.9125 115.387 62.6992C114.918 62.4859 114.564 62.2128 114.325 61.88C114.086 61.5472 113.966 61.1248 113.966 60.6128C113.966 60.0837 114.116 59.6101 114.414 59.192C114.713 58.7739 115.127 58.4496 115.656 58.2192C116.194 57.9803 116.795 57.8608 117.461 57.8608C118.681 57.8608 119.675 58.1851 120.443 58.8336C120.554 58.9275 120.631 59.0213 120.674 59.1152C120.725 59.2005 120.75 59.3115 120.75 59.448C120.75 59.6272 120.695 59.7851 120.584 59.9216C120.482 60.0496 120.358 60.1136 120.213 60.1136C120.128 60.1136 120.046 60.1008 119.97 60.0752C119.901 60.0496 119.808 60.0027 119.688 59.9344C119.338 59.6784 118.997 59.4907 118.664 59.3712C118.34 59.2432 117.939 59.1792 117.461 59.1792C116.881 59.1792 116.42 59.2987 116.078 59.5376C115.746 59.768 115.579 60.0923 115.579 60.5104C115.579 60.8603 115.729 61.1291 116.027 61.3168C116.326 61.5045 116.834 61.6795 117.55 61.8416C118.31 62.0123 118.924 62.2043 119.394 62.4176C119.872 62.6224 120.234 62.8869 120.482 63.2112C120.738 63.5355 120.866 63.9408 120.866 64.4272C120.866 64.9563 120.716 65.4256 120.418 65.8352C120.128 66.2363 119.714 66.552 119.176 66.7824C118.647 67.0043 118.037 67.1152 117.346 67.1152ZM129.879 67.1152C129 67.1152 128.236 66.9275 127.588 66.552C126.948 66.1765 126.453 65.6389 126.103 64.9392C125.753 64.2395 125.578 63.4203 125.578 62.4816C125.578 61.5429 125.749 60.728 126.09 60.0368C126.44 59.3371 126.939 58.7995 127.588 58.424C128.236 58.0485 129 57.8608 129.879 57.8608C130.758 57.8608 131.518 58.0485 132.158 58.424C132.806 58.7995 133.301 59.3371 133.642 60.0368C133.992 60.728 134.167 61.5429 134.167 62.4816C134.167 63.4203 133.992 64.2395 133.642 64.9392C133.292 65.6389 132.793 66.1765 132.145 66.552C131.505 66.9275 130.75 67.1152 129.879 67.1152ZM129.879 65.7968C130.707 65.7968 131.351 65.5109 131.812 64.9392C132.281 64.3675 132.516 63.5483 132.516 62.4816C132.516 61.4149 132.281 60.6 131.812 60.0368C131.351 59.4651 130.707 59.1792 129.879 59.1792C129.043 59.1792 128.39 59.4651 127.921 60.0368C127.46 60.6 127.23 61.4149 127.23 62.4816C127.23 63.5483 127.46 64.3675 127.921 64.9392C128.39 65.5109 129.043 65.7968 129.879 65.7968ZM142.67 57.912C142.909 57.912 143.097 57.9888 143.233 58.1424C143.378 58.2875 143.451 58.4837 143.451 58.7312V66.2448C143.451 66.4923 143.378 66.6928 143.233 66.8464C143.088 67 142.901 67.0768 142.67 67.0768C142.397 67.0768 142.188 66.9787 142.043 66.7824L137.371 60.7024V66.2448C137.371 66.4923 137.303 66.6928 137.166 66.8464C137.03 67 136.842 67.0768 136.603 67.0768C136.364 67.0768 136.176 67 136.04 66.8464C135.903 66.6928 135.835 66.4923 135.835 66.2448V58.7312C135.835 58.4837 135.907 58.2875 136.053 58.1424C136.198 57.9888 136.39 57.912 136.629 57.912C136.893 57.912 137.098 58.0101 137.243 58.2064L141.902 64.2608V58.7312C141.902 58.4837 141.97 58.2875 142.107 58.1424C142.252 57.9888 142.44 57.912 142.67 57.912ZM154.504 58.1936C154.658 58.0059 154.842 57.912 155.055 57.912C155.251 57.912 155.426 57.9888 155.58 58.1424C155.733 58.2875 155.81 58.4624 155.81 58.6672C155.81 58.8379 155.746 59 155.618 59.1536L152.712 62.6992V66.2448C152.712 66.5093 152.636 66.7141 152.482 66.8592C152.328 67.0043 152.132 67.0768 151.893 67.0768C151.646 67.0768 151.445 67.0043 151.292 66.8592C151.138 66.7141 151.061 66.5093 151.061 66.2448V62.6992L148.156 59.1536C148.028 59 147.964 58.8379 147.964 58.6672C147.964 58.4624 148.04 58.2875 148.194 58.1424C148.348 57.9888 148.523 57.912 148.719 57.912C148.932 57.912 149.116 58.0059 149.269 58.1936L151.893 61.4448L154.504 58.1936ZM160.329 67.1152C159.45 67.1152 158.686 66.9275 158.038 66.552C157.398 66.1765 156.903 65.6389 156.553 64.9392C156.203 64.2395 156.028 63.4203 156.028 62.4816C156.028 61.5429 156.199 60.728 156.54 60.0368C156.89 59.3371 157.389 58.7995 158.038 58.424C158.686 58.0485 159.45 57.8608 160.329 57.8608C161.208 57.8608 161.968 58.0485 162.608 58.424C163.256 58.7995 163.751 59.3371 164.092 60.0368C164.442 60.728 164.617 61.5429 164.617 62.4816C164.617 63.4203 164.442 64.2395 164.092 64.9392C163.742 65.6389 163.243 66.1765 162.595 66.552C161.955 66.9275 161.2 67.1152 160.329 67.1152ZM160.329 65.7968C161.157 65.7968 161.801 65.5109 162.262 64.9392C162.731 64.3675 162.966 63.5483 162.966 62.4816C162.966 61.4149 162.731 60.6 162.262 60.0368C161.801 59.4651 161.157 59.1792 160.329 59.1792C159.493 59.1792 158.84 59.4651 158.371 60.0368C157.91 60.6 157.68 61.4149 157.68 62.4816C157.68 63.5483 157.91 64.3675 158.371 64.9392C158.84 65.5109 159.493 65.7968 160.329 65.7968ZM170.01 67.1152C168.772 67.1152 167.834 66.7952 167.194 66.1552C166.554 65.5152 166.234 64.5808 166.234 63.352V58.7312C166.234 58.4837 166.306 58.2875 166.451 58.1424C166.596 57.9888 166.793 57.912 167.04 57.912C167.288 57.912 167.484 57.9888 167.629 58.1424C167.774 58.2875 167.847 58.4837 167.847 58.7312V63.4416C167.847 64.2181 168.03 64.8069 168.397 65.208C168.764 65.6005 169.301 65.7968 170.01 65.7968C170.709 65.7968 171.243 65.5963 171.61 65.1952C171.977 64.7941 172.16 64.2096 172.16 63.4416V58.7312C172.16 58.4837 172.233 58.2875 172.378 58.1424C172.523 57.9888 172.719 57.912 172.967 57.912C173.214 57.912 173.41 57.9888 173.555 58.1424C173.7 58.2875 173.773 58.4837 173.773 58.7312V63.352C173.773 64.5723 173.453 65.5067 172.813 66.1552C172.173 66.7952 171.239 67.1152 170.01 67.1152ZM182.892 65.9632C182.994 66.1168 183.045 66.2661 183.045 66.4112C183.045 66.6075 182.964 66.7696 182.802 66.8976C182.648 67.0256 182.465 67.0896 182.252 67.0896C182.115 67.0896 181.983 67.0597 181.855 67C181.735 66.9317 181.633 66.8336 181.548 66.7056L179.845 64.12C179.675 63.8469 179.491 63.6549 179.295 63.544C179.107 63.4331 178.86 63.3776 178.552 63.3776H177.298V66.2448C177.298 66.5008 177.225 66.7056 177.08 66.8592C176.935 67.0043 176.739 67.0768 176.492 67.0768C176.244 67.0768 176.044 67.0043 175.89 66.8592C175.745 66.7056 175.672 66.5008 175.672 66.2448V58.7568C175.672 58.5093 175.741 58.3173 175.877 58.1808C176.022 58.0443 176.219 57.976 176.466 57.976H179.666C180.69 57.976 181.467 58.2064 181.996 58.6672C182.533 59.1195 182.802 59.7765 182.802 60.6384C182.802 61.3381 182.601 61.9141 182.2 62.3664C181.808 62.8101 181.249 63.096 180.524 63.224C180.771 63.2837 180.989 63.3904 181.176 63.544C181.364 63.6976 181.548 63.9109 181.727 64.184L182.892 65.9632ZM179.436 62.1104C180.059 62.1104 180.515 61.9952 180.805 61.7648C181.095 61.5259 181.24 61.1632 181.24 60.6768C181.24 60.1819 181.095 59.8235 180.805 59.6016C180.515 59.3712 180.059 59.256 179.436 59.256H177.285V62.1104H179.436ZM192.079 67.1152C191.209 67.1152 190.445 66.9275 189.788 66.552C189.14 66.1765 188.64 65.6389 188.291 64.9392C187.941 64.2395 187.766 63.4203 187.766 62.4816C187.766 61.5429 187.941 60.728 188.291 60.0368C188.64 59.3371 189.14 58.7995 189.788 58.424C190.445 58.0485 191.209 57.8608 192.079 57.8608C192.643 57.8608 193.172 57.9461 193.667 58.1168C194.162 58.2789 194.601 58.5179 194.985 58.8336C195.096 58.9189 195.173 59.0085 195.215 59.1024C195.258 59.1963 195.279 59.3115 195.279 59.448C195.279 59.6357 195.228 59.7936 195.126 59.9216C195.023 60.0496 194.9 60.1136 194.755 60.1136C194.584 60.1136 194.409 60.0539 194.23 59.9344C193.863 59.6613 193.522 59.4736 193.206 59.3712C192.89 59.2603 192.54 59.2048 192.156 59.2048C191.269 59.2048 190.595 59.4821 190.134 60.0368C189.682 60.5915 189.455 61.4064 189.455 62.4816C189.455 63.5653 189.682 64.3845 190.134 64.9392C190.595 65.4939 191.269 65.7712 192.156 65.7712C192.523 65.7712 192.86 65.7157 193.167 65.6048C193.483 65.4939 193.837 65.3061 194.23 65.0416C194.315 64.9904 194.4 64.9477 194.486 64.9136C194.571 64.8795 194.661 64.8624 194.755 64.8624C194.9 64.8624 195.023 64.9264 195.126 65.0544C195.228 65.1824 195.279 65.3403 195.279 65.528C195.279 65.656 195.258 65.7712 195.215 65.8736C195.173 65.9675 195.096 66.0571 194.985 66.1424C194.601 66.4581 194.162 66.7013 193.667 66.872C193.172 67.0341 192.643 67.1152 192.079 67.1152ZM200.579 67.1152C199.7 67.1152 198.936 66.9275 198.288 66.552C197.648 66.1765 197.153 65.6389 196.803 64.9392C196.453 64.2395 196.278 63.4203 196.278 62.4816C196.278 61.5429 196.449 60.728 196.79 60.0368C197.14 59.3371 197.639 58.7995 198.288 58.424C198.936 58.0485 199.7 57.8608 200.579 57.8608C201.458 57.8608 202.218 58.0485 202.858 58.424C203.506 58.7995 204.001 59.3371 204.342 60.0368C204.692 60.728 204.867 61.5429 204.867 62.4816C204.867 63.4203 204.692 64.2395 204.342 64.9392C203.992 65.6389 203.493 66.1765 202.845 66.552C202.205 66.9275 201.45 67.1152 200.579 67.1152ZM200.579 65.7968C201.407 65.7968 202.051 65.5109 202.512 64.9392C202.981 64.3675 203.216 63.5483 203.216 62.4816C203.216 61.4149 202.981 60.6 202.512 60.0368C202.051 59.4651 201.407 59.1792 200.579 59.1792C199.743 59.1792 199.09 59.4651 198.621 60.0368C198.16 60.6 197.93 61.4149 197.93 62.4816C197.93 63.5483 198.16 64.3675 198.621 64.9392C199.09 65.5109 199.743 65.7968 200.579 65.7968ZM213.37 57.912C213.609 57.912 213.797 57.9888 213.933 58.1424C214.078 58.2875 214.151 58.4837 214.151 58.7312V66.2448C214.151 66.4923 214.078 66.6928 213.933 66.8464C213.788 67 213.601 67.0768 213.37 67.0768C213.097 67.0768 212.888 66.9787 212.743 66.7824L208.071 60.7024V66.2448C208.071 66.4923 208.003 66.6928 207.866 66.8464C207.73 67 207.542 67.0768 207.303 67.0768C207.064 67.0768 206.876 67 206.74 66.8464C206.603 66.6928 206.535 66.4923 206.535 66.2448V58.7312C206.535 58.4837 206.607 58.2875 206.753 58.1424C206.898 57.9888 207.09 57.912 207.329 57.912C207.593 57.912 207.798 58.0101 207.943 58.2064L212.602 64.2608V58.7312C212.602 58.4837 212.67 58.2875 212.807 58.1424C212.952 57.9888 213.14 57.912 213.37 57.912ZM219.054 67.064C218.798 67.064 218.593 66.9915 218.44 66.8464C218.295 66.6928 218.222 66.4923 218.222 66.2448V59.3328H215.893C215.381 59.3328 215.125 59.1067 215.125 58.6544C215.125 58.2021 215.381 57.976 215.893 57.976H222.203C222.715 57.976 222.971 58.2021 222.971 58.6544C222.971 59.1067 222.715 59.3328 222.203 59.3328H219.873V66.2448C219.873 66.4923 219.797 66.6928 219.643 66.8464C219.498 66.9915 219.302 67.064 219.054 67.064ZM224.741 67C224.494 67 224.297 66.9317 224.152 66.7952C224.016 66.6587 223.947 66.4667 223.947 66.2192V58.7568C223.947 58.5093 224.016 58.3173 224.152 58.1808C224.297 58.0443 224.494 57.976 224.741 57.976H229.362C229.609 57.976 229.801 58.0315 229.938 58.1424C230.074 58.2533 230.143 58.4112 230.143 58.616C230.143 58.8293 230.074 58.9957 229.938 59.1152C229.801 59.2261 229.609 59.2816 229.362 59.2816H225.56V61.7648H229.106C229.353 61.7648 229.545 61.8203 229.682 61.9312C229.818 62.0421 229.887 62.2043 229.887 62.4176C229.887 62.6224 229.818 62.7803 229.682 62.8912C229.545 63.0021 229.353 63.0576 229.106 63.0576H225.56V65.6944H229.362C229.609 65.6944 229.801 65.7541 229.938 65.8736C230.074 65.9845 230.143 66.1467 230.143 66.36C230.143 66.5648 230.074 66.7227 229.938 66.8336C229.801 66.9445 229.609 67 229.362 67H224.741ZM238.32 57.912C238.559 57.912 238.747 57.9888 238.883 58.1424C239.028 58.2875 239.101 58.4837 239.101 58.7312V66.2448C239.101 66.4923 239.028 66.6928 238.883 66.8464C238.738 67 238.551 67.0768 238.32 67.0768C238.047 67.0768 237.838 66.9787 237.693 66.7824L233.021 60.7024V66.2448C233.021 66.4923 232.953 66.6928 232.816 66.8464C232.68 67 232.492 67.0768 232.253 67.0768C232.014 67.0768 231.826 67 231.69 66.8464C231.553 66.6928 231.485 66.4923 231.485 66.2448V58.7312C231.485 58.4837 231.557 58.2875 231.703 58.1424C231.848 57.9888 232.04 57.912 232.279 57.912C232.543 57.912 232.748 58.0101 232.893 58.2064L237.552 64.2608V58.7312C237.552 58.4837 237.62 58.2875 237.757 58.1424C237.902 57.9888 238.09 57.912 238.32 57.912ZM244.004 67.064C243.748 67.064 243.543 66.9915 243.39 66.8464C243.245 66.6928 243.172 66.4923 243.172 66.2448V59.3328H240.843C240.331 59.3328 240.075 59.1067 240.075 58.6544C240.075 58.2021 240.331 57.976 240.843 57.976H247.153C247.665 57.976 247.921 58.2021 247.921 58.6544C247.921 59.1067 247.665 59.3328 247.153 59.3328H244.823V66.2448C244.823 66.4923 244.747 66.6928 244.593 66.8464C244.448 66.9915 244.252 67.064 244.004 67.064ZM251.733 67.1152C251.076 67.1152 250.453 67.0299 249.864 66.8592C249.284 66.68 248.81 66.4411 248.444 66.1424C248.247 65.9973 248.149 65.7925 248.149 65.528C248.149 65.3488 248.2 65.1952 248.303 65.0672C248.414 64.9307 248.542 64.8624 248.687 64.8624C248.84 64.8624 249.015 64.9221 249.212 65.0416C249.578 65.3061 249.962 65.4981 250.364 65.6176C250.765 65.7371 251.208 65.7968 251.695 65.7968C252.318 65.7968 252.796 65.6901 253.128 65.4768C253.461 65.2549 253.628 64.9349 253.628 64.5168C253.628 64.1925 253.47 63.9451 253.154 63.7744C252.847 63.5952 252.33 63.4245 251.605 63.2624C250.854 63.1003 250.244 62.9125 249.775 62.6992C249.305 62.4859 248.951 62.2128 248.712 61.88C248.473 61.5472 248.354 61.1248 248.354 60.6128C248.354 60.0837 248.503 59.6101 248.802 59.192C249.101 58.7739 249.514 58.4496 250.044 58.2192C250.581 57.9803 251.183 57.8608 251.848 57.8608C253.069 57.8608 254.063 58.1851 254.831 58.8336C254.942 58.9275 255.018 59.0213 255.061 59.1152C255.112 59.2005 255.138 59.3115 255.138 59.448C255.138 59.6272 255.082 59.7851 254.972 59.9216C254.869 60.0496 254.745 60.1136 254.6 60.1136C254.515 60.1136 254.434 60.1008 254.357 60.0752C254.289 60.0496 254.195 60.0027 254.076 59.9344C253.726 59.6784 253.384 59.4907 253.052 59.3712C252.727 59.2432 252.326 59.1792 251.848 59.1792C251.268 59.1792 250.807 59.2987 250.466 59.5376C250.133 59.768 249.967 60.0923 249.967 60.5104C249.967 60.8603 250.116 61.1291 250.415 61.3168C250.713 61.5045 251.221 61.6795 251.938 61.8416C252.697 62.0123 253.312 62.2043 253.781 62.4176C254.259 62.6224 254.622 62.8869 254.869 63.2112C255.125 63.5355 255.253 63.9408 255.253 64.4272C255.253 64.9563 255.104 65.4256 254.805 65.8352C254.515 66.2363 254.101 66.552 253.564 66.7824C253.034 67.0043 252.424 67.1152 251.733 67.1152Z" fill="#FFD736"/>
<path d="M242.903 48.5338C242.903 48.5338 245.702 41.9617 247.889 42.2907C249.091 42.4715 250.269 42.9262 250.312 44.076C250.344 44.9623 249.798 45.5452 248.983 46.0246C247.259 47.04 245.506 44.938 245.008 43.1349C244.321 40.6453 249.63 37.9343 249.63 37.9343" stroke="#50D38D" stroke-width="1.2"/>
<path d="M259.082 46C259.082 46 258.595 43.1082 259.992 42.5318C261.166 42.0476 262.183 44.189 263.148 43.4127C264.124 42.6263 261.686 41.3805 262.48 40.4399C263.316 39.4501 266 40.4399 266 40.4399" stroke="#F27E5A" stroke-width="1.2"/>
<path d="M261.041 58.0373L262.521 53.9744L265.388 56.9199L266.608 53.5065L269.183 56.3624L271.045 52.8016" stroke="#89DBFF"/>
<path d="M29.7123 48.5338C29.7123 48.5338 26.913 41.9617 24.7262 42.2907C23.5248 42.4715 22.3462 42.9262 22.3037 44.076C22.271 44.9623 22.8179 45.5452 23.6322 46.0246C25.3564 47.04 27.1095 44.938 27.6072 43.1349C28.2945 40.6453 22.986 37.9343 22.986 37.9343" stroke="#50D38D" stroke-width="1.2"/>
<path d="M13.5337 46C13.5337 46 14.0205 43.1082 12.6235 42.5318C11.4498 42.0476 10.4323 44.189 9.46796 43.4127C8.49113 42.6263 10.9296 41.3805 10.1355 40.4399C9.29967 39.4501 6.61584 40.4399 6.61584 40.4399" stroke="#EB8744" stroke-width="1.2"/>
<path d="M11.5745 58.0373L10.0946 53.9744L7.22758 56.9199L6.00753 53.5065L3.43265 56.3624L1.57048 52.8016" stroke="#89DBFF"/>
<path d="M175.309 2.61408C177.625 7.2192 175.928 13.8405 172.199 18.0916C170.66 19.8457 167.946 21.8682 165.889 20.6141C164.975 20.0569 163.731 18.0601 165.361 17.0749C167.413 15.8366 169.339 19.5899 169.82 20.8305C170.467 22.5959 170.738 24.5404 170.616 26.5378C170.493 28.5353 169.979 30.5411 169.107 32.4253C165.168 40.9801 156.211 43.6422 148.648 45.6537" stroke="#FA7767" stroke-width="1.5003" stroke-miterlimit="10" stroke-linecap="round"/>
<path d="M178.526 3.65677C176.577 3.75498 175.465 2.30865 173.672 2.02163C173.864 3.43788 174.129 6.33678 173.474 7.80759" stroke="#FA7767" stroke-width="1.5003" stroke-miterlimit="10" stroke-linecap="round" stroke-linejoin="round"/>
</svg>
